<mxfile host="app.diagrams.net" agent="Mozilla/5.0 (Windows NT 10.0; Win64; x64) AppleWebKit/537.36 (KHTML, like Gecko) Chrome/130.0.0.0 Safari/537.36" version="24.8.1">
  <diagram name="Page-1" id="e7e014a7-5840-1c2e-5031-d8a46d1fe8dd">
    <mxGraphModel dx="1687" dy="868" grid="1" gridSize="10" guides="1" tooltips="1" connect="1" arrows="1" fold="1" page="1" pageScale="1" pageWidth="1169" pageHeight="826" background="none" math="0" shadow="0">
      <root>
        <mxCell id="0" />
        <mxCell id="1" parent="0" />
        <mxCell id="NPMCzpVcE4DdGsrKd8Wo-43" value="" style="edgeStyle=orthogonalEdgeStyle;rounded=0;orthogonalLoop=1;jettySize=auto;html=1;labelBackgroundColor=none;strokeColor=#23445D;fontColor=default;endArrow=none;endFill=0;" parent="1" source="NPMCzpVcE4DdGsrKd8Wo-41" edge="1">
          <mxGeometry relative="1" as="geometry">
            <mxPoint x="585" y="85" as="targetPoint" />
          </mxGeometry>
        </mxCell>
        <mxCell id="NPMCzpVcE4DdGsrKd8Wo-41" value="" style="ellipse;whiteSpace=wrap;html=1;labelBackgroundColor=none;fillColor=#182E3E;strokeColor=#FFFFFF;fontColor=#FFFFFF;" parent="1" vertex="1">
          <mxGeometry x="560" y="10" width="50" height="50" as="geometry" />
        </mxCell>
        <mxCell id="NPMCzpVcE4DdGsrKd8Wo-45" value="Acceso a la página" style="text;html=1;align=center;verticalAlign=middle;resizable=0;points=[];autosize=1;strokeColor=none;fillColor=none;" parent="1" vertex="1">
          <mxGeometry x="525" y="80" width="120" height="30" as="geometry" />
        </mxCell>
        <mxCell id="2OBWCIvBv8OirQKVdBHE-6" value="" style="edgeStyle=orthogonalEdgeStyle;rounded=0;orthogonalLoop=1;jettySize=auto;html=1;" parent="1" source="NPMCzpVcE4DdGsrKd8Wo-45" target="2OBWCIvBv8OirQKVdBHE-5" edge="1">
          <mxGeometry relative="1" as="geometry">
            <mxPoint x="585" y="190" as="targetPoint" />
            <mxPoint x="585" y="110" as="sourcePoint" />
          </mxGeometry>
        </mxCell>
        <mxCell id="2OBWCIvBv8OirQKVdBHE-8" value="" style="edgeStyle=orthogonalEdgeStyle;rounded=0;orthogonalLoop=1;jettySize=auto;html=1;" parent="1" source="2OBWCIvBv8OirQKVdBHE-5" target="2OBWCIvBv8OirQKVdBHE-7" edge="1">
          <mxGeometry relative="1" as="geometry" />
        </mxCell>
        <mxCell id="2OBWCIvBv8OirQKVdBHE-15" style="edgeStyle=orthogonalEdgeStyle;rounded=0;orthogonalLoop=1;jettySize=auto;html=1;" parent="1" source="2OBWCIvBv8OirQKVdBHE-5" target="2OBWCIvBv8OirQKVdBHE-14" edge="1">
          <mxGeometry relative="1" as="geometry" />
        </mxCell>
        <mxCell id="2OBWCIvBv8OirQKVdBHE-5" value="¿Tiene cuenta?" style="rhombus;whiteSpace=wrap;html=1;" parent="1" vertex="1">
          <mxGeometry x="545" y="120" width="80" height="80" as="geometry" />
        </mxCell>
        <mxCell id="5OvfimaJpzU8dBzKKMhC-1" style="edgeStyle=orthogonalEdgeStyle;rounded=0;orthogonalLoop=1;jettySize=auto;html=1;entryX=0.653;entryY=0.862;entryDx=0;entryDy=0;entryPerimeter=0;" parent="1" source="2OBWCIvBv8OirQKVdBHE-7" target="2OBWCIvBv8OirQKVdBHE-5" edge="1">
          <mxGeometry relative="1" as="geometry">
            <mxPoint x="765" y="230" as="targetPoint" />
            <Array as="points">
              <mxPoint x="760" y="189" />
            </Array>
          </mxGeometry>
        </mxCell>
        <mxCell id="2OBWCIvBv8OirQKVdBHE-7" value="Login" style="rounded=1;whiteSpace=wrap;html=1;" parent="1" vertex="1">
          <mxGeometry x="720" y="140" width="90" height="40" as="geometry" />
        </mxCell>
        <mxCell id="2OBWCIvBv8OirQKVdBHE-9" value="No" style="text;html=1;align=center;verticalAlign=middle;resizable=0;points=[];autosize=1;strokeColor=none;fillColor=none;" parent="1" vertex="1">
          <mxGeometry x="650" y="130" width="40" height="30" as="geometry" />
        </mxCell>
        <mxCell id="2OBWCIvBv8OirQKVdBHE-10" value="Sí" style="text;html=1;align=center;verticalAlign=middle;whiteSpace=wrap;rounded=0;rotation=-90;" parent="1" vertex="1">
          <mxGeometry x="545" y="210" width="60" height="30" as="geometry" />
        </mxCell>
        <mxCell id="2OBWCIvBv8OirQKVdBHE-19" style="edgeStyle=orthogonalEdgeStyle;rounded=0;orthogonalLoop=1;jettySize=auto;html=1;" parent="1" source="2OBWCIvBv8OirQKVdBHE-14" target="2OBWCIvBv8OirQKVdBHE-18" edge="1">
          <mxGeometry relative="1" as="geometry" />
        </mxCell>
        <mxCell id="2OBWCIvBv8OirQKVdBHE-21" style="edgeStyle=orthogonalEdgeStyle;rounded=0;orthogonalLoop=1;jettySize=auto;html=1;" parent="1" source="2OBWCIvBv8OirQKVdBHE-14" target="2OBWCIvBv8OirQKVdBHE-20" edge="1">
          <mxGeometry relative="1" as="geometry" />
        </mxCell>
        <mxCell id="2OBWCIvBv8OirQKVdBHE-14" value="¿Consumidor u Ofertante?" style="rhombus;whiteSpace=wrap;html=1;" parent="1" vertex="1">
          <mxGeometry x="525" y="250" width="120" height="80" as="geometry" />
        </mxCell>
        <mxCell id="2OBWCIvBv8OirQKVdBHE-17" value="Ofertante" style="text;html=1;align=center;verticalAlign=middle;resizable=0;points=[];autosize=1;strokeColor=none;fillColor=none;" parent="1" vertex="1">
          <mxGeometry x="455" y="260" width="70" height="30" as="geometry" />
        </mxCell>
        <mxCell id="2OBWCIvBv8OirQKVdBHE-24" style="edgeStyle=orthogonalEdgeStyle;rounded=0;orthogonalLoop=1;jettySize=auto;html=1;entryX=1;entryY=0.5;entryDx=0;entryDy=0;" parent="1" source="2OBWCIvBv8OirQKVdBHE-18" target="2OBWCIvBv8OirQKVdBHE-23" edge="1">
          <mxGeometry relative="1" as="geometry" />
        </mxCell>
        <mxCell id="2OBWCIvBv8OirQKVdBHE-18" value="Home Ofertante" style="rounded=1;whiteSpace=wrap;html=1;" parent="1" vertex="1">
          <mxGeometry x="350" y="270" width="90" height="40" as="geometry" />
        </mxCell>
        <mxCell id="2OBWCIvBv8OirQKVdBHE-29" style="edgeStyle=orthogonalEdgeStyle;rounded=0;orthogonalLoop=1;jettySize=auto;html=1;entryX=0;entryY=0.5;entryDx=0;entryDy=0;" parent="1" source="2OBWCIvBv8OirQKVdBHE-20" target="2OBWCIvBv8OirQKVdBHE-28" edge="1">
          <mxGeometry relative="1" as="geometry" />
        </mxCell>
        <mxCell id="2OBWCIvBv8OirQKVdBHE-31" style="edgeStyle=orthogonalEdgeStyle;rounded=0;orthogonalLoop=1;jettySize=auto;html=1;entryX=0.5;entryY=0;entryDx=0;entryDy=0;" parent="1" source="2OBWCIvBv8OirQKVdBHE-20" target="2OBWCIvBv8OirQKVdBHE-30" edge="1">
          <mxGeometry relative="1" as="geometry" />
        </mxCell>
        <mxCell id="2OBWCIvBv8OirQKVdBHE-20" value="Home Consumidor" style="rounded=1;whiteSpace=wrap;html=1;" parent="1" vertex="1">
          <mxGeometry x="720" y="270" width="90" height="40" as="geometry" />
        </mxCell>
        <mxCell id="2OBWCIvBv8OirQKVdBHE-22" value="Consumidor" style="text;html=1;align=center;verticalAlign=middle;resizable=0;points=[];autosize=1;strokeColor=none;fillColor=none;" parent="1" vertex="1">
          <mxGeometry x="625" y="260" width="90" height="30" as="geometry" />
        </mxCell>
        <mxCell id="2OBWCIvBv8OirQKVdBHE-41" style="edgeStyle=orthogonalEdgeStyle;rounded=0;orthogonalLoop=1;jettySize=auto;html=1;endArrow=none;endFill=0;" parent="1" source="2OBWCIvBv8OirQKVdBHE-23" edge="1">
          <mxGeometry relative="1" as="geometry">
            <mxPoint x="205" y="640" as="targetPoint" />
          </mxGeometry>
        </mxCell>
        <mxCell id="2OBWCIvBv8OirQKVdBHE-23" value="Lista de Actividades&lt;div&gt;(CRUD Actividades)&lt;/div&gt;" style="rounded=1;whiteSpace=wrap;html=1;" parent="1" vertex="1">
          <mxGeometry x="160" y="250" width="90" height="80" as="geometry" />
        </mxCell>
        <mxCell id="mzOaFXFaOPw1aKnejNMN-2" style="edgeStyle=orthogonalEdgeStyle;rounded=0;orthogonalLoop=1;jettySize=auto;html=1;entryX=0.622;entryY=1.025;entryDx=0;entryDy=0;entryPerimeter=0;" edge="1" parent="1" source="2OBWCIvBv8OirQKVdBHE-28" target="2OBWCIvBv8OirQKVdBHE-20">
          <mxGeometry relative="1" as="geometry">
            <mxPoint x="985" y="350" as="targetPoint" />
            <Array as="points">
              <mxPoint x="980" y="330" />
              <mxPoint x="776" y="330" />
            </Array>
          </mxGeometry>
        </mxCell>
        <mxCell id="2OBWCIvBv8OirQKVdBHE-28" value="Editar perfil" style="rounded=1;whiteSpace=wrap;html=1;" parent="1" vertex="1">
          <mxGeometry x="940" y="270" width="90" height="40" as="geometry" />
        </mxCell>
        <mxCell id="2OBWCIvBv8OirQKVdBHE-33" style="edgeStyle=orthogonalEdgeStyle;rounded=0;orthogonalLoop=1;jettySize=auto;html=1;" parent="1" source="2OBWCIvBv8OirQKVdBHE-30" target="2OBWCIvBv8OirQKVdBHE-32" edge="1">
          <mxGeometry relative="1" as="geometry" />
        </mxCell>
        <mxCell id="2OBWCIvBv8OirQKVdBHE-30" value="Lista Actividades&lt;div&gt;(Con filtros)&lt;/div&gt;" style="rounded=1;whiteSpace=wrap;html=1;" parent="1" vertex="1">
          <mxGeometry x="720" y="413" width="90" height="53" as="geometry" />
        </mxCell>
        <mxCell id="2OBWCIvBv8OirQKVdBHE-39" style="edgeStyle=orthogonalEdgeStyle;rounded=0;orthogonalLoop=1;jettySize=auto;html=1;endArrow=none;endFill=0;" parent="1" source="2OBWCIvBv8OirQKVdBHE-32" edge="1">
          <mxGeometry relative="1" as="geometry">
            <mxPoint x="985" y="640" as="targetPoint" />
          </mxGeometry>
        </mxCell>
        <mxCell id="2OBWCIvBv8OirQKVdBHE-32" value="&lt;span style=&quot;font-weight: normal;&quot;&gt;Formulario unirse a Actividad&lt;/span&gt;" style="rounded=1;whiteSpace=wrap;html=1;fontStyle=1" parent="1" vertex="1">
          <mxGeometry x="940" y="413" width="90" height="53.5" as="geometry" />
        </mxCell>
        <mxCell id="2OBWCIvBv8OirQKVdBHE-40" style="edgeStyle=orthogonalEdgeStyle;rounded=0;orthogonalLoop=1;jettySize=auto;html=1;endArrow=none;endFill=0;startArrow=classic;startFill=1;" parent="1" source="2OBWCIvBv8OirQKVdBHE-36" edge="1">
          <mxGeometry relative="1" as="geometry">
            <mxPoint x="990" y="635" as="targetPoint" />
          </mxGeometry>
        </mxCell>
        <mxCell id="2OBWCIvBv8OirQKVdBHE-42" style="edgeStyle=orthogonalEdgeStyle;rounded=0;orthogonalLoop=1;jettySize=auto;html=1;startArrow=classic;startFill=1;endArrow=none;endFill=0;" parent="1" source="2OBWCIvBv8OirQKVdBHE-36" edge="1">
          <mxGeometry relative="1" as="geometry">
            <mxPoint x="200" y="635" as="targetPoint" />
          </mxGeometry>
        </mxCell>
        <mxCell id="2OBWCIvBv8OirQKVdBHE-36" value="" style="ellipse;html=1;shape=endState;fillColor=#000000;strokeColor=#ff0000;" parent="1" vertex="1">
          <mxGeometry x="560" y="610" width="50" height="50" as="geometry" />
        </mxCell>
        <mxCell id="5OvfimaJpzU8dBzKKMhC-2" value="Registrado" style="text;html=1;align=center;verticalAlign=middle;resizable=0;points=[];autosize=1;strokeColor=none;fillColor=none;" parent="1" vertex="1">
          <mxGeometry x="630" y="188" width="80" height="30" as="geometry" />
        </mxCell>
        <mxCell id="mzOaFXFaOPw1aKnejNMN-3" value="Cambios realizados" style="text;html=1;align=center;verticalAlign=middle;resizable=0;points=[];autosize=1;strokeColor=none;fillColor=none;" vertex="1" parent="1">
          <mxGeometry x="810" y="330" width="130" height="30" as="geometry" />
        </mxCell>
      </root>
    </mxGraphModel>
  </diagram>
</mxfile>
